<mxfile host="Electron" modified="2024-02-21T15:28:05.946Z" agent="Mozilla/5.0 (Windows NT 10.0; Win64; x64) AppleWebKit/537.36 (KHTML, like Gecko) draw.io/23.1.5 Chrome/120.0.6099.109 Electron/28.1.0 Safari/537.36" etag="mxvF_2HhXwXw4he5ljq7" version="23.1.5" type="device">
  <diagram name="Page-1" id="FIoj14Ah0M4KKi89Oqow">
    <mxGraphModel dx="1588" dy="1514" grid="1" gridSize="10" guides="1" tooltips="1" connect="1" arrows="1" fold="1" page="0" pageScale="1" pageWidth="1700" pageHeight="1100" math="0" shadow="0">
      <root>
        <mxCell id="0" />
        <mxCell id="1" parent="0" />
        <mxCell id="6Ki7qsOhkE2Jg0H65KlY-2" value="&lt;font style=&quot;font-size: 25px;&quot;&gt;Demo App&lt;br&gt;Frontend&lt;br&gt;(React + Bootstrap)&lt;/font&gt;" style="rounded=1;whiteSpace=wrap;html=1;fillColor=#f5f5f5;fontColor=#333333;strokeColor=#666666;strokeWidth=3;" parent="1" vertex="1">
          <mxGeometry x="199" y="-10" width="229" height="132" as="geometry" />
        </mxCell>
        <mxCell id="2u-xjwmQLDVsSCsb3xAA-4" style="rounded=0;orthogonalLoop=1;jettySize=auto;html=1;exitX=0.5;exitY=1;exitDx=0;exitDy=0;entryX=0.5;entryY=0;entryDx=0;entryDy=0;startArrow=classic;startFill=1;fillColor=#f5f5f5;strokeColor=#666666;strokeWidth=4;" edge="1" parent="1" source="6Ki7qsOhkE2Jg0H65KlY-3" target="2u-xjwmQLDVsSCsb3xAA-5">
          <mxGeometry relative="1" as="geometry">
            <mxPoint x="713" y="310" as="targetPoint" />
          </mxGeometry>
        </mxCell>
        <mxCell id="2u-xjwmQLDVsSCsb3xAA-13" value="&lt;font style=&quot;font-size: 22px;&quot;&gt;Authorize&lt;/font&gt;" style="edgeLabel;html=1;align=center;verticalAlign=middle;resizable=0;points=[];" vertex="1" connectable="0" parent="2u-xjwmQLDVsSCsb3xAA-4">
          <mxGeometry x="-0.1058" y="3" relative="1" as="geometry">
            <mxPoint x="-1" as="offset" />
          </mxGeometry>
        </mxCell>
        <mxCell id="6Ki7qsOhkE2Jg0H65KlY-3" value="&lt;span style=&quot;font-size: 26px;&quot;&gt;Demo App &lt;br&gt;Backend&lt;/span&gt;" style="rounded=1;whiteSpace=wrap;html=1;fillColor=#f5f5f5;fontColor=#333333;strokeColor=#666666;strokeWidth=3;" parent="1" vertex="1">
          <mxGeometry x="599" y="-10" width="229" height="132" as="geometry" />
        </mxCell>
        <mxCell id="6Ki7qsOhkE2Jg0H65KlY-6" value="" style="strokeColor=#82b366;shadow=1;strokeWidth=3;rounded=1;absoluteArcSize=1;arcSize=2;fontSize=14;fillColor=#d5e8d4;" parent="1" vertex="1">
          <mxGeometry x="874.5" y="578.5" width="145.5" height="81" as="geometry" />
        </mxCell>
        <mxCell id="6Ki7qsOhkE2Jg0H65KlY-7" value="&lt;font style=&quot;font-size: 23px;&quot; color=&quot;#000000&quot;&gt;Firebase&lt;/font&gt;" style="sketch=0;dashed=0;connectable=0;html=1;fillColor=#5184F3;strokeColor=none;shape=mxgraph.gcp2.firebase;part=1;labelPosition=right;verticalLabelPosition=middle;align=left;verticalAlign=middle;spacingLeft=5;fontColor=#999999;fontSize=12;" parent="6Ki7qsOhkE2Jg0H65KlY-6" vertex="1">
          <mxGeometry width="32.4" height="45" relative="1" as="geometry">
            <mxPoint x="5" y="7" as="offset" />
          </mxGeometry>
        </mxCell>
        <mxCell id="6Ki7qsOhkE2Jg0H65KlY-8" value="" style="verticalLabelPosition=bottom;verticalAlign=top;html=1;shadow=0;dashed=0;strokeWidth=1;shape=mxgraph.android.phone2;strokeColor=#6c8ebf;fillColor=#dae8fc;" parent="1" vertex="1">
          <mxGeometry x="350" y="424" width="200" height="390" as="geometry" />
        </mxCell>
        <mxCell id="6Ki7qsOhkE2Jg0H65KlY-10" value="&lt;font style=&quot;font-size: 20px;&quot;&gt;Actor&lt;/font&gt;" style="shape=umlActor;verticalLabelPosition=bottom;verticalAlign=top;html=1;outlineConnect=0;strokeWidth=5;fillColor=#f5f5f5;fontColor=#333333;strokeColor=#666666;" parent="1" vertex="1">
          <mxGeometry x="100" y="240.5" width="80" height="150" as="geometry" />
        </mxCell>
        <mxCell id="6Ki7qsOhkE2Jg0H65KlY-13" value="" style="endArrow=classic;startArrow=none;html=1;rounded=0;entryX=-0.001;entryY=0.598;entryDx=0;entryDy=0;entryPerimeter=0;fillColor=#f5f5f5;strokeColor=#666666;strokeWidth=4;startFill=0;" parent="1" source="6Ki7qsOhkE2Jg0H65KlY-10" edge="1">
          <mxGeometry width="50" height="50" relative="1" as="geometry">
            <mxPoint x="150" y="300" as="sourcePoint" />
            <mxPoint x="612.7999999999997" y="315.68000000000006" as="targetPoint" />
          </mxGeometry>
        </mxCell>
        <mxCell id="2u-xjwmQLDVsSCsb3xAA-8" value="&lt;font style=&quot;font-size: 22px;&quot;&gt;1. Authenticate&lt;/font&gt;" style="edgeLabel;html=1;align=center;verticalAlign=middle;resizable=0;points=[];" vertex="1" connectable="0" parent="6Ki7qsOhkE2Jg0H65KlY-13">
          <mxGeometry x="0.1931" relative="1" as="geometry">
            <mxPoint as="offset" />
          </mxGeometry>
        </mxCell>
        <mxCell id="6Ki7qsOhkE2Jg0H65KlY-15" value="" style="endArrow=classic;startArrow=none;html=1;rounded=0;entryX=0.004;entryY=0.957;entryDx=0;entryDy=0;entryPerimeter=0;fillColor=#f5f5f5;strokeColor=#666666;strokeWidth=4;startFill=0;" parent="1" target="6Ki7qsOhkE2Jg0H65KlY-2" edge="1">
          <mxGeometry width="50" height="50" relative="1" as="geometry">
            <mxPoint x="150" y="220" as="sourcePoint" />
            <mxPoint x="230" y="320" as="targetPoint" />
          </mxGeometry>
        </mxCell>
        <mxCell id="2u-xjwmQLDVsSCsb3xAA-7" value="&lt;font style=&quot;font-size: 19px;&quot;&gt;Use Application&lt;/font&gt;" style="edgeLabel;html=1;align=center;verticalAlign=middle;resizable=0;points=[];" vertex="1" connectable="0" parent="6Ki7qsOhkE2Jg0H65KlY-15">
          <mxGeometry x="0.1325" y="6" relative="1" as="geometry">
            <mxPoint x="-3" y="12" as="offset" />
          </mxGeometry>
        </mxCell>
        <mxCell id="6Ki7qsOhkE2Jg0H65KlY-17" value="" style="endArrow=classic;html=1;rounded=0;entryX=0.5;entryY=0;entryDx=0;entryDy=0;exitX=0.75;exitY=1;exitDx=0;exitDy=0;strokeWidth=4;fillColor=#d5e8d4;strokeColor=#82b366;" parent="1" target="6Ki7qsOhkE2Jg0H65KlY-6" edge="1" source="2u-xjwmQLDVsSCsb3xAA-5">
          <mxGeometry width="50" height="50" relative="1" as="geometry">
            <mxPoint x="830" y="370" as="sourcePoint" />
            <mxPoint x="880" y="320" as="targetPoint" />
          </mxGeometry>
        </mxCell>
        <mxCell id="2u-xjwmQLDVsSCsb3xAA-18" value="&lt;font style=&quot;font-size: 22px;&quot;&gt;3.Push &lt;br&gt;Notification&lt;/font&gt;" style="edgeLabel;html=1;align=center;verticalAlign=middle;resizable=0;points=[];" vertex="1" connectable="0" parent="6Ki7qsOhkE2Jg0H65KlY-17">
          <mxGeometry x="-0.3547" relative="1" as="geometry">
            <mxPoint x="20" y="23" as="offset" />
          </mxGeometry>
        </mxCell>
        <mxCell id="6Ki7qsOhkE2Jg0H65KlY-18" value="" style="endArrow=classic;html=1;rounded=0;entryX=1.012;entryY=0.5;entryDx=0;entryDy=0;entryPerimeter=0;exitX=0;exitY=0.5;exitDx=0;exitDy=0;strokeWidth=4;fillColor=#d5e8d4;strokeColor=#82b366;" parent="1" target="6Ki7qsOhkE2Jg0H65KlY-8" edge="1" source="6Ki7qsOhkE2Jg0H65KlY-6">
          <mxGeometry width="50" height="50" relative="1" as="geometry">
            <mxPoint x="1140" y="560" as="sourcePoint" />
            <mxPoint x="1190" y="510" as="targetPoint" />
          </mxGeometry>
        </mxCell>
        <mxCell id="2u-xjwmQLDVsSCsb3xAA-19" value="&lt;font style=&quot;font-size: 22px;&quot;&gt;4.Push &lt;br&gt;Notification&lt;/font&gt;" style="edgeLabel;html=1;align=center;verticalAlign=middle;resizable=0;points=[];" vertex="1" connectable="0" parent="6Ki7qsOhkE2Jg0H65KlY-18">
          <mxGeometry x="-0.1501" y="1" relative="1" as="geometry">
            <mxPoint as="offset" />
          </mxGeometry>
        </mxCell>
        <mxCell id="6Ki7qsOhkE2Jg0H65KlY-19" value="" style="endArrow=classic;html=1;rounded=0;exitX=1.014;exitY=0.27;exitDx=0;exitDy=0;exitPerimeter=0;entryX=0.5;entryY=1;entryDx=0;entryDy=0;strokeWidth=4;fillColor=#d5e8d4;strokeColor=#82b366;" parent="1" source="6Ki7qsOhkE2Jg0H65KlY-8" target="2u-xjwmQLDVsSCsb3xAA-5" edge="1">
          <mxGeometry width="50" height="50" relative="1" as="geometry">
            <mxPoint x="1060" y="310" as="sourcePoint" />
            <mxPoint x="812.7999999999997" y="280.1600000000001" as="targetPoint" />
          </mxGeometry>
        </mxCell>
        <mxCell id="2u-xjwmQLDVsSCsb3xAA-20" value="&lt;font style=&quot;font-size: 22px;&quot;&gt;6. Code&lt;/font&gt;" style="edgeLabel;html=1;align=center;verticalAlign=middle;resizable=0;points=[];" vertex="1" connectable="0" parent="6Ki7qsOhkE2Jg0H65KlY-19">
          <mxGeometry x="0.07" relative="1" as="geometry">
            <mxPoint y="10" as="offset" />
          </mxGeometry>
        </mxCell>
        <mxCell id="6Ki7qsOhkE2Jg0H65KlY-36" value="&lt;font style=&quot;font-size: 22px;&quot;&gt;Postgre&lt;br&gt;SQL&lt;/font&gt;" style="shape=cylinder3;whiteSpace=wrap;html=1;boundedLbl=1;backgroundOutline=1;size=15;fillColor=#d5e8d4;strokeColor=#82b366;strokeWidth=3;" parent="1" vertex="1">
          <mxGeometry x="1060" y="243.5" width="112" height="133" as="geometry" />
        </mxCell>
        <mxCell id="6Ki7qsOhkE2Jg0H65KlY-37" value="" style="endArrow=classic;startArrow=none;html=1;rounded=0;entryX=0;entryY=0.5;entryDx=0;entryDy=0;entryPerimeter=0;startFill=0;exitX=1;exitY=0.5;exitDx=0;exitDy=0;strokeWidth=4;fillColor=#d5e8d4;strokeColor=#82b366;" parent="1" target="6Ki7qsOhkE2Jg0H65KlY-36" edge="1" source="2u-xjwmQLDVsSCsb3xAA-5">
          <mxGeometry width="50" height="50" relative="1" as="geometry">
            <mxPoint x="831" y="332" as="sourcePoint" />
            <mxPoint x="879" y="296" as="targetPoint" />
          </mxGeometry>
        </mxCell>
        <mxCell id="2u-xjwmQLDVsSCsb3xAA-17" value="&lt;font style=&quot;font-size: 22px;&quot;&gt;2. Obtain FCM &lt;br&gt;token&lt;/font&gt;" style="edgeLabel;html=1;align=center;verticalAlign=middle;resizable=0;points=[];" vertex="1" connectable="0" parent="6Ki7qsOhkE2Jg0H65KlY-37">
          <mxGeometry x="-0.104" y="2" relative="1" as="geometry">
            <mxPoint x="5" y="2" as="offset" />
          </mxGeometry>
        </mxCell>
        <mxCell id="6Ki7qsOhkE2Jg0H65KlY-49" value="&lt;font style=&quot;font-size: 22px;&quot;&gt;Notification&lt;/font&gt;" style="shape=callout;whiteSpace=wrap;html=1;perimeter=calloutPerimeter;fillColor=#d5e8d4;strokeColor=#82b366;gradientColor=none;rounded=1;" parent="1" vertex="1">
          <mxGeometry x="390" y="589" width="120" height="80" as="geometry" />
        </mxCell>
        <mxCell id="2u-xjwmQLDVsSCsb3xAA-2" style="edgeStyle=orthogonalEdgeStyle;rounded=0;orthogonalLoop=1;jettySize=auto;html=1;exitX=1;exitY=0.5;exitDx=0;exitDy=0;strokeWidth=4;startArrow=none;startFill=0;fillColor=#f5f5f5;strokeColor=#666666;" edge="1" parent="1" source="6Ki7qsOhkE2Jg0H65KlY-2" target="6Ki7qsOhkE2Jg0H65KlY-3">
          <mxGeometry relative="1" as="geometry" />
        </mxCell>
        <mxCell id="2u-xjwmQLDVsSCsb3xAA-9" value="&lt;font style=&quot;font-size: 17px;&quot;&gt;Access App &lt;br&gt;Resources&lt;/font&gt;" style="edgeLabel;html=1;align=center;verticalAlign=middle;resizable=0;points=[];" vertex="1" connectable="0" parent="2u-xjwmQLDVsSCsb3xAA-2">
          <mxGeometry x="-0.2269" y="-1" relative="1" as="geometry">
            <mxPoint x="18" y="-1" as="offset" />
          </mxGeometry>
        </mxCell>
        <mxCell id="2u-xjwmQLDVsSCsb3xAA-6" value="" style="group" vertex="1" connectable="0" parent="1">
          <mxGeometry x="610" y="240" width="207" height="140" as="geometry" />
        </mxCell>
        <mxCell id="2u-xjwmQLDVsSCsb3xAA-5" value="&lt;font style=&quot;font-size: 26px;&quot;&gt;KeyCloak&lt;/font&gt;" style="rounded=1;whiteSpace=wrap;html=1;strokeWidth=3;fillColor=#f5f5f5;fontColor=#333333;strokeColor=#666666;" vertex="1" parent="2u-xjwmQLDVsSCsb3xAA-6">
          <mxGeometry width="207" height="140" as="geometry" />
        </mxCell>
        <mxCell id="6Ki7qsOhkE2Jg0H65KlY-9" value="" style="image;aspect=fixed;perimeter=ellipsePerimeter;html=1;align=center;shadow=0;dashed=0;spacingTop=3;image=img/lib/active_directory/active_directory.svg;container=0;" parent="2u-xjwmQLDVsSCsb3xAA-6" vertex="1">
          <mxGeometry x="9" y="5" width="57.06" height="48.5" as="geometry" />
        </mxCell>
        <mxCell id="2u-xjwmQLDVsSCsb3xAA-11" value="" style="endArrow=classic;startArrow=classic;html=1;rounded=0;fillColor=#d5e8d4;strokeColor=#82b366;strokeWidth=4;startFill=1;" edge="1" parent="1">
          <mxGeometry width="50" height="50" relative="1" as="geometry">
            <mxPoint x="190" y="390" as="sourcePoint" />
            <mxPoint x="350" y="630" as="targetPoint" />
          </mxGeometry>
        </mxCell>
        <mxCell id="2u-xjwmQLDVsSCsb3xAA-21" value="&lt;font style=&quot;font-size: 22px;&quot;&gt;5. Approve&lt;/font&gt;" style="edgeLabel;html=1;align=center;verticalAlign=middle;resizable=0;points=[];" vertex="1" connectable="0" parent="2u-xjwmQLDVsSCsb3xAA-11">
          <mxGeometry x="-0.2167" y="-1" relative="1" as="geometry">
            <mxPoint as="offset" />
          </mxGeometry>
        </mxCell>
        <mxCell id="2u-xjwmQLDVsSCsb3xAA-16" value="" style="endArrow=none;dashed=1;html=1;rounded=0;fillColor=#f5f5f5;strokeColor=#666666;strokeWidth=3;" edge="1" parent="1">
          <mxGeometry width="50" height="50" relative="1" as="geometry">
            <mxPoint x="90" y="840" as="sourcePoint" />
            <mxPoint x="1240" y="840" as="targetPoint" />
          </mxGeometry>
        </mxCell>
        <mxCell id="2u-xjwmQLDVsSCsb3xAA-22" value="&lt;font style=&quot;font-size: 25px;&quot;&gt;Legend&lt;/font&gt;" style="text;html=1;align=center;verticalAlign=middle;whiteSpace=wrap;rounded=0;" vertex="1" parent="1">
          <mxGeometry x="100" y="890" width="130" height="30" as="geometry" />
        </mxCell>
        <mxCell id="2u-xjwmQLDVsSCsb3xAA-25" value="" style="endArrow=classic;startArrow=none;html=1;rounded=0;entryX=-0.001;entryY=0.598;entryDx=0;entryDy=0;entryPerimeter=0;fillColor=#f5f5f5;strokeColor=#666666;strokeWidth=4;startFill=0;" edge="1" parent="1">
          <mxGeometry width="50" height="50" relative="1" as="geometry">
            <mxPoint x="270" y="890.32" as="sourcePoint" />
            <mxPoint x="702.7999999999997" y="890.0000000000001" as="targetPoint" />
          </mxGeometry>
        </mxCell>
        <mxCell id="2u-xjwmQLDVsSCsb3xAA-26" value="&lt;font style=&quot;font-size: 22px;&quot;&gt;Usual OAuth 2.0 Interaction&lt;/font&gt;" style="edgeLabel;html=1;align=center;verticalAlign=middle;resizable=0;points=[];" vertex="1" connectable="0" parent="2u-xjwmQLDVsSCsb3xAA-25">
          <mxGeometry x="0.1931" relative="1" as="geometry">
            <mxPoint x="-48" as="offset" />
          </mxGeometry>
        </mxCell>
        <mxCell id="2u-xjwmQLDVsSCsb3xAA-27" value="" style="endArrow=classic;html=1;rounded=0;strokeWidth=4;fillColor=#d5e8d4;strokeColor=#82b366;" edge="1" parent="1">
          <mxGeometry width="50" height="50" relative="1" as="geometry">
            <mxPoint x="270" y="960" as="sourcePoint" />
            <mxPoint x="700" y="960" as="targetPoint" />
          </mxGeometry>
        </mxCell>
        <mxCell id="2u-xjwmQLDVsSCsb3xAA-28" value="&lt;span style=&quot;font-size: 22px;&quot;&gt;Proposed Interaction &lt;br&gt;for PN&lt;/span&gt;" style="edgeLabel;html=1;align=center;verticalAlign=middle;resizable=0;points=[];" vertex="1" connectable="0" parent="2u-xjwmQLDVsSCsb3xAA-27">
          <mxGeometry x="-0.3547" relative="1" as="geometry">
            <mxPoint x="65" as="offset" />
          </mxGeometry>
        </mxCell>
        <mxCell id="2u-xjwmQLDVsSCsb3xAA-31" value="&lt;font style=&quot;font-size: 22px;&quot;&gt;Usual OAuth 2.0 component&lt;/font&gt;" style="rounded=1;whiteSpace=wrap;html=1;strokeWidth=3;fillColor=#f5f5f5;fontColor=#333333;strokeColor=#666666;" vertex="1" parent="1">
          <mxGeometry x="750" y="880" width="192" height="90" as="geometry" />
        </mxCell>
        <mxCell id="2u-xjwmQLDVsSCsb3xAA-32" value="&lt;font style=&quot;font-size: 22px;&quot;&gt;Proposed component for PN&lt;/font&gt;" style="rounded=1;whiteSpace=wrap;html=1;strokeWidth=3;fillColor=#d5e8d4;strokeColor=#82b366;" vertex="1" parent="1">
          <mxGeometry x="1010" y="880" width="192" height="90" as="geometry" />
        </mxCell>
      </root>
    </mxGraphModel>
  </diagram>
</mxfile>
